<svg id="visual" viewbox="0 0 960 540" style="margin: 0; padding: 0;" width="2000" height="500"
    xmlns="http://www.w3.org/2000/svg" xmlns:xlink="http://www.w3.org/1999/xlink" version="1.1">
    <path
        d="M0 330L17.8 334.2C35.7 338.3 71.3 346.7 106.8 346.7C142.3 346.7 177.7 338.3 213.2 343.3C248.7 348.3 284.3 366.7 320 369.8C355.7 373 391.3 361 426.8 352.3C462.3 343.7 497.7 338.3 533.2 342.5C568.7 346.7 604.3 360.3 640 362C675.7 363.7 711.3 353.3 746.8 355.8C782.3 358.3 817.7 373.7 853.2 377.7C888.7 381.7 924.3 374.3 942.2 370.7L960 367L960 541L942.2 541C924.3 541 888.7 541 853.2 541C817.7 541 782.3 541 746.8 541C711.3 541 675.7 541 640 541C604.3 541 568.7 541 533.2 541C497.7 541 462.3 541 426.8 541C391.3 541 355.7 541 320 541C284.3 541 248.7 541 213.2 541C177.7 541 142.3 541 106.8 541C71.3 541 35.7 541 17.8 541L0 541Z"
        fill="#c5cae1"></path>
    <path
        d="M0 349L17.8 349.7C35.7 350.3 71.3 351.7 106.8 363.5C142.3 375.3 177.7 397.7 213.2 405C248.7 412.3 284.3 404.7 320 399.5C355.7 394.3 391.3 391.7 426.8 390.7C462.3 389.7 497.7 390.3 533.2 395C568.7 399.7 604.3 408.3 640 402C675.7 395.7 711.3 374.3 746.8 368.2C782.3 362 817.7 371 853.2 379C888.7 387 924.3 394 942.2 397.5L960 401L960 541L942.2 541C924.3 541 888.7 541 853.2 541C817.7 541 782.3 541 746.8 541C711.3 541 675.7 541 640 541C604.3 541 568.7 541 533.2 541C497.7 541 462.3 541 426.8 541C391.3 541 355.7 541 320 541C284.3 541 248.7 541 213.2 541C177.7 541 142.3 541 106.8 541C71.3 541 35.7 541 17.8 541L0 541Z"
        fill="#c8d6e8"></path>
    <path
        d="M0 411L17.8 406C35.7 401 71.3 391 106.8 389.2C142.3 387.3 177.7 393.7 213.2 400.3C248.7 407 284.3 414 320 411.8C355.7 409.7 391.3 398.3 426.8 401.3C462.3 404.3 497.7 421.7 533.2 427.5C568.7 433.3 604.3 427.7 640 427.8C675.7 428 711.3 434 746.8 434.3C782.3 434.7 817.7 429.3 853.2 424.2C888.7 419 924.3 414 942.2 411.5L960 409L960 541L942.2 541C924.3 541 888.7 541 853.2 541C817.7 541 782.3 541 746.8 541C711.3 541 675.7 541 640 541C604.3 541 568.7 541 533.2 541C497.7 541 462.3 541 426.8 541C391.3 541 355.7 541 320 541C284.3 541 248.7 541 213.2 541C177.7 541 142.3 541 106.8 541C71.3 541 35.7 541 17.8 541L0 541Z"
        fill="#cfe1ee"></path>
    <path
        d="M0 435L17.8 439.2C35.7 443.3 71.3 451.7 106.8 456C142.3 460.3 177.7 460.7 213.2 462.2C248.7 463.7 284.3 466.3 320 466.7C355.7 467 391.3 465 426.8 459.3C462.3 453.7 497.7 444.3 533.2 440.7C568.7 437 604.3 439 640 437.8C675.7 436.7 711.3 432.3 746.8 436C782.3 439.7 817.7 451.3 853.2 451.3C888.7 451.3 924.3 439.7 942.2 433.8L960 428L960 541L942.2 541C924.3 541 888.7 541 853.2 541C817.7 541 782.3 541 746.8 541C711.3 541 675.7 541 640 541C604.3 541 568.7 541 533.2 541C497.7 541 462.3 541 426.8 541C391.3 541 355.7 541 320 541C284.3 541 248.7 541 213.2 541C177.7 541 142.3 541 106.8 541C71.3 541 35.7 541 17.8 541L0 541Z"
        fill="#d8ebf4"></path>
    <path
        d="M0 450L17.8 451.2C35.7 452.3 71.3 454.7 106.8 459.7C142.3 464.7 177.7 472.3 213.2 475.7C248.7 479 284.3 478 320 475.2C355.7 472.3 391.3 467.7 426.8 463.7C462.3 459.7 497.7 456.3 533.2 456.5C568.7 456.7 604.3 460.3 640 460.7C675.7 461 711.3 458 746.8 457.8C782.3 457.7 817.7 460.3 853.2 462.2C888.7 464 924.3 465 942.2 465.5L960 466L960 541L942.2 541C924.3 541 888.7 541 853.2 541C817.7 541 782.3 541 746.8 541C711.3 541 675.7 541 640 541C604.3 541 568.7 541 533.2 541C497.7 541 462.3 541 426.8 541C391.3 541 355.7 541 320 541C284.3 541 248.7 541 213.2 541C177.7 541 142.3 541 106.8 541C71.3 541 35.7 541 17.8 541L0 541Z"
        fill="#e3f5f9"></path>
    <path
        d="M0 487L17.8 489.2C35.7 491.3 71.3 495.7 106.8 496.2C142.3 496.7 177.7 493.3 213.2 496.2C248.7 499 284.3 508 320 506.8C355.7 505.7 391.3 494.3 426.8 491C462.3 487.7 497.7 492.3 533.2 494C568.7 495.7 604.3 494.3 640 495.2C675.7 496 711.3 499 746.8 501.5C782.3 504 817.7 506 853.2 507.8C888.7 509.7 924.3 511.3 942.2 512.2L960 513L960 541L942.2 541C924.3 541 888.7 541 853.2 541C817.7 541 782.3 541 746.8 541C711.3 541 675.7 541 640 541C604.3 541 568.7 541 533.2 541C497.7 541 462.3 541 426.8 541C391.3 541 355.7 541 320 541C284.3 541 248.7 541 213.2 541C177.7 541 142.3 541 106.8 541C71.3 541 35.7 541 17.8 541L0 541Z"
        fill="#f0ffff"></path>
</svg>