<?xml version="1.0" encoding="UTF-8"?>
<svg enable-background="new 0 0 100 100" version="1.1" viewBox="0 0 100 125" xml:space="preserve" xmlns="http://www.w3.org/2000/svg"><g fill="#f0ffff"><path d="m13.7 50.5h31.4c5 0 8.7 0.8 12.1 2.7 1.1 0.6 2.1 1.3 3.1 2 0.6 0.5 1.1 1 1.7 1.6 0.5 0.5 1.1 1 1.7 1.5 2.1 1.7 4.7 2.6 7.4 2.6h0.9c5.2-0.4 9.5-4.3 10.4-9.4 1.1-5.7-2.4-11.6-8-13.3-6-1.9-12.5 1.5-14.5 7.5-0.1 0.4 0.1 0.8 0.5 1 0.4 0.1 0.8-0.1 1-0.5 1.7-5.2 7.3-8.1 12.5-6.5 4.8 1.5 7.9 6.6 6.9 11.5-0.8 4.3-4.6 7.7-9 8.1-2.6 0.2-5.2-0.6-7.2-2.2-0.5-0.4-1-0.9-1.5-1.4-0.6-0.6-1.2-1.2-1.8-1.7-1-0.8-2.2-1.5-3.3-2.2-3.6-2-7.6-2.8-12.9-2.8h-31.4c-0.4 0-0.8 0.3-0.8 0.8s0.3 0.7 0.8 0.7z"/><path d="m11.7 49.7c0-0.4-0.3-0.8-0.8-0.8h-5.2c-0.4 0-0.8 0.3-0.8 0.8s0.3 0.8 0.8 0.8h5.3c0.4 0 0.7-0.3 0.7-0.8z"/><path d="m16 51.9h-5.4c-0.4 0-0.8 0.3-0.8 0.8s0.3 0.8 0.8 0.8h5.4c0.4 0 0.8-0.3 0.8-0.8s-0.4-0.8-0.8-0.8z"/><path d="m45.9 53.6c3.3 0.2 7.7 0.5 11.3 3.2 0.9 0.7 1.8 1.5 2.6 2.2 1.8 1.7 3.6 3.4 6.3 4.3 1.5 0.5 3.1 0.8 4.7 0.8 4.7 0 9.3-2.3 12.2-6.3 4-5.6 3.5-13.4-1.2-18.5-2.8-3-6.8-4.6-11-4.6-4.2 0.1-8.2 1.9-10.9 5-0.3 0.3-0.3 0.8 0.1 1.1 0.3 0.3 0.8 0.3 1.1-0.1 2.4-2.8 6-4.4 9.7-4.4 3.8 0 7.4 1.4 9.8 4.1 4.3 4.6 4.7 11.5 1.1 16.6-3.5 4.8-9.7 6.8-15.1 4.9-2.4-0.8-4-2.4-5.8-4-0.8-0.8-1.7-1.6-2.7-2.3-3.9-3-8.8-3.3-12.1-3.5-3.2-0.2-18.2-0.3-27.6-0.2-0.4 0-0.8 0.4-0.8 0.8s0.3 0.8 0.8 0.8c9.3-0.2 24.3-0.1 27.5 0.1z"/><path d="m65.3 34.3c4.4-1.7 9.4-1.3 13.6 1s7.2 6.3 8.1 11c1.5 7.9-3.2 16-10.9 18.5-4.3 1.4-9 0.9-13-1.3-1.5-0.9-2.8-1.9-4.1-3.1-1.1-1-2.2-2-3.6-2.8-5.1-3.4-16-3.3-24.8-3.2h-3.7c-0.4 0-0.8 0.3-0.8 0.8s0.3 0.8 0.8 0.8h3.7c8.5-0.1 19.2-0.2 23.9 2.9 1.3 0.8 2.3 1.8 3.4 2.7 1.3 1.1 2.7 2.3 4.3 3.3 2.7 1.5 5.7 2.3 8.7 2.3 1.8 0 3.7-0.3 5.5-0.9 8.4-2.7 13.6-11.6 11.9-20.3-1-5.1-4.2-9.5-8.9-12-4.6-2.6-10.1-3-14.9-1.1-0.4 0.2-0.6 0.6-0.4 1 0.3 0.3 0.8 0.5 1.2 0.4z"/><path d="m73.3 30.2c7.5 0.8 14.1 6.2 16.4 13.4 2 6.5 0.4 13.4-4.3 18.6s-11.5 7.4-18.1 6c-3.3-0.7-6.5-2.4-9.3-5-2.7-2.5-4.8-3.7-7.7-4.5-5.8-1.5-11.9-1.6-17.7-1.7h-1c-0.4 0-0.8 0.3-0.8 0.8s0.3 0.8 0.8 0.8h1c5.8 0.1 11.7 0.2 17.4 1.6 2.6 0.7 4.5 1.8 7 4.1 3 2.7 6.4 4.6 10 5.4 1.4 0.3 2.8 0.4 4.2 0.4 5.7 0 11.3-2.4 15.3-6.9 5.1-5.6 6.8-13.1 4.6-20.1-2.4-7.8-9.5-13.7-17.7-14.5-0.4 0-0.8 0.3-0.9 0.7 0.1 0.5 0.4 0.9 0.8 0.9z"/><path d="m78.6 28.4c1.3 0.4 2.5 1 3.7 1.7 0.1 0.1 0.3 0.1 0.4 0.1 0.3 0 0.5-0.1 0.7-0.4 0.2-0.4 0.1-0.8-0.3-1.1-1.3-0.7-2.6-1.3-4-1.8-0.4-0.1-0.8 0.1-1 0.5-0.1 0.5 0.1 0.9 0.5 1z"/><path d="m85.4 30.3c-0.3-0.3-0.8-0.2-1.1 0.2-0.3 0.3-0.2 0.8 0.2 1.1 5.7 4.2 9.1 10.8 9.1 17.9 0 11.3-8.8 21-20.1 22-6.5 0.5-12.9-1.8-17.3-6.1-4.2-4.2-11.2-5.1-18.2-5.3-0.4 0-0.8 0.3-0.8 0.7s0.3 0.8 0.7 0.8c6.7 0.3 13.3 1 17.1 4.9 4.2 4.2 10.2 6.6 16.4 6.6 0.7 0 1.4 0 2.1-0.1 12.1-1.1 21.5-11.5 21.5-23.6 0.1-7.5-3.5-14.7-9.6-19.1z"/><path d="m24.9 55.2c0-0.4-0.3-0.8-0.8-0.8h-5.4c-0.4 0-0.8 0.3-0.8 0.8s0.3 0.8 0.8 0.8h5.4c0.5 0 0.8-0.4 0.8-0.8z"/><path d="m29.2 57.9c0-0.4-0.3-0.8-0.8-0.8h-5.4c-0.4 0-0.8 0.3-0.8 0.8s0.3 0.8 0.8 0.8h5.4c0.5 0 0.8-0.3 0.8-0.8z"/><path d="m34.9 60.1h-5.4c-0.4 0-0.8 0.3-0.8 0.8s0.3 0.8 0.8 0.8h5.4c0.4 0 0.8-0.3 0.8-0.8s-0.3-0.8-0.8-0.8z"/></g></svg>
