<?xml version="1.0" standalone="no"?>
<!DOCTYPE svg PUBLIC "-//W3C//DTD SVG 20010904//EN"
 "http://www.w3.org/TR/2001/REC-SVG-20010904/DTD/svg10.dtd">
<svg version="1.0" xmlns="http://www.w3.org/2000/svg"
 width="700.000000pt" height="614.000000pt" viewBox="0 0 700.000000 614.000000"
 preserveAspectRatio="xMidYMid meet">

<g transform="translate(0.000000,614.000000) scale(0.100000,-0.100000)"
fill="#000000" stroke="none">
<path d="M5212 4524 c-7 -3 -17 -14 -22 -25 -16 -28 3 -55 47 -70 21 -6 77
-31 125 -55 48 -24 96 -44 107 -44 25 0 43 24 39 52 -2 18 -26 35 -118 80
-117 58 -155 71 -178 62z"/>
<path d="M4859 4396 c-17 -37 9 -63 70 -71 417 -57 795 -364 937 -761 145
-404 44 -854 -263 -1175 -203 -212 -435 -327 -724 -359 -320 -35 -633 78 -917
333 -192 173 -332 240 -615 291 -165 30 -290 43 -532 56 -264 14 -438 13 -453
-2 -21 -21 -15 -68 11 -77 12 -4 148 -11 302 -14 391 -9 674 -42 867 -103 138
-44 216 -91 370 -225 285 -248 537 -352 853 -352 196 0 356 35 524 114 376
176 664 562 720 963 86 617 -303 1204 -909 1373 -47 13 -117 26 -157 30 -71 6
-72 5 -84 -21z"/>
<path d="M5562 4318 c-27 -27 -13 -55 59 -114 244 -199 408 -475 471 -789 28
-141 28 -353 -1 -492 -106 -514 -479 -908 -981 -1038 -127 -33 -356 -45 -491
-26 -271 38 -509 148 -711 326 -114 101 -164 137 -258 184 -183 93 -424 144
-737 158 -161 6 -183 2 -183 -38 0 -35 39 -46 175 -53 72 -4 191 -15 265 -26
301 -44 462 -111 634 -264 136 -122 211 -175 332 -237 197 -100 413 -151 644
-152 715 -3 1322 541 1411 1263 14 116 7 326 -16 435 -56 274 -190 527 -379
717 -135 136 -202 178 -234 146z"/>
<path d="M4650 4233 c-69 -7 -193 -34 -245 -54 -65 -24 -80 -53 -44 -82 26
-21 38 -20 144 13 90 28 301 38 412 20 358 -57 664 -317 772 -655 110 -342 23
-707 -233 -974 -144 -149 -318 -243 -523 -282 -95 -18 -330 -6 -422 20 -171
50 -314 135 -481 286 -245 221 -424 290 -880 336 -162 16 -1031 24 -1058 10
-25 -13 -30 -62 -9 -79 7 -6 198 -12 522 -15 380 -4 542 -9 635 -21 258 -33
421 -80 536 -155 33 -21 115 -86 184 -145 69 -58 160 -132 203 -162 245 -177
601 -231 902 -137 373 116 643 418 731 816 22 97 22 318 1 413 -50 221 -145
392 -300 541 -94 89 -164 138 -286 199 -171 85 -383 126 -561 107z"/>
<path d="M4635 4050 c-187 -30 -358 -114 -492 -243 -66 -63 -75 -83 -45 -110
28 -26 44 -21 92 29 281 289 762 314 1079 55 110 -89 217 -264 257 -416 26
-100 24 -283 -4 -388 -75 -275 -297 -494 -578 -568 -109 -29 -279 -29 -385 -1
-142 38 -237 98 -414 261 -164 152 -270 220 -420 270 -213 71 -352 80 -1322
88 -731 6 -794 5 -817 -11 -29 -18 -35 -56 -12 -75 11 -9 128 -10 473 -6 486
7 1249 -7 1393 -26 200 -26 373 -89 495 -181 33 -25 116 -96 185 -157 69 -62
157 -132 195 -156 144 -90 352 -135 528 -114 439 52 770 398 794 831 21 375
-191 719 -527 854 -144 59 -339 85 -475 64z"/>
<path d="M4615 3864 c-114 -25 -240 -92 -328 -174 -115 -108 -214 -280 -188
-329 13 -24 53 -28 69 -8 6 7 30 51 53 98 75 150 224 272 385 313 34 9 102 16
151 16 169 0 293 -51 414 -170 132 -131 184 -255 183 -435 0 -92 -4 -122 -26
-182 -52 -146 -165 -276 -296 -342 -108 -54 -158 -66 -277 -66 -193 1 -301 53
-491 234 -163 156 -350 265 -546 320 -201 56 -155 54 -1330 58 l-1087 4 -16
-25 c-13 -19 -14 -29 -5 -45 l11 -21 1013 0 c660 0 1051 -4 1122 -11 309 -31
561 -147 795 -365 115 -108 166 -145 255 -185 93 -42 175 -59 295 -59 196 0
344 63 484 204 135 138 196 287 197 481 1 121 -17 200 -72 310 -89 180 -228
301 -415 361 -102 33 -249 41 -350 18z"/>
<path d="M809 3189 c-21 -21 -19 -56 5 -71 20 -13 361 -9 374 4 19 19 14 55
-10 72 -18 13 -54 16 -185 16 -151 0 -165 -2 -184 -21z"/>
<path d="M1118 3023 c-22 -5 -35 -50 -21 -72 9 -14 38 -16 193 -19 160 -2 185
0 201 14 24 22 24 39 -1 64 -19 19 -32 20 -187 19 -93 -1 -176 -3 -185 -6z"/>
<path d="M1589 2859 c-21 -21 -19 -56 5 -71 20 -13 371 -9 384 4 19 19 15 66
-7 78 -12 6 -92 10 -190 10 -159 0 -172 -1 -192 -21z"/>
<path d="M1839 2689 c-8 -16 -8 -28 0 -45 l11 -24 188 0 c197 0 212 3 212 45
0 42 -15 45 -212 45 -181 0 -188 -1 -199 -21z"/>
<path d="M2229 2509 c-8 -16 -8 -28 0 -45 l11 -24 188 0 c197 0 212 3 212 45
0 42 -15 45 -212 45 -181 0 -188 -1 -199 -21z"/>
</g>
</svg>
